<svg id="Capa_1" enable-background="new 0 0 511.98 511.98" height="512" viewBox="0 0 511.98 511.98" width="512" xmlns="http://www.w3.org/2000/svg"><g><path d="m374.853 69.563-8.056 15.102c-3.305 6.196-12.187 6.196-15.492 0l-8.056-15.102c-.82-1.536-2.078-2.795-3.614-3.614l-15.102-8.056c-6.196-3.305-6.196-12.187 0-15.492l15.102-8.056c1.536-.82 2.794-2.078 3.614-3.614l8.056-15.102c3.305-6.196 12.187-6.196 15.492 0l8.056 15.102c.82 1.537 2.078 2.795 3.614 3.614l15.102 8.056c6.196 3.305 6.196 12.187 0 15.492l-15.102 8.056c-1.536.819-2.794 2.077-3.614 3.614z" fill="#a2ddfd"/><ellipse cx="255.969" cy="271.242" fill="#f6ee86" rx="234.824" ry="229.728"/><path d="m413.62 441.503c-326.025 19.905-354.357-232.435-221.643-391.356-98.592 27.253-170.832 115.92-170.832 221.095 0 126.875 105.134 229.728 234.824 229.728 60.675 0 115.977-22.515 157.651-59.467z" fill="#eed076"/><g><g><path d="m163.127 292.124c.012 23.876-24.284 43.244-54.266 43.259s-54.298-19.328-54.31-43.205 24.284-43.245 54.267-43.26c29.982-.015 54.297 19.329 54.309 43.206z" fill="#e7889d"/><path d="m348.811 292.03c.012 23.876 24.328 43.22 54.31 43.204 29.982-.015 54.278-19.383 54.267-43.259-.012-23.877-24.328-43.221-54.31-43.206-29.983.016-54.279 19.384-54.267 43.261z" fill="#e7889d"/><path d="m306.295 292.676c-.016-31.109-22.553-34.02-50.353-34.006s-50.335 2.948-50.319 34.057c.016 31.108 22.565 56.314 50.365 56.301 27.8-.015 50.323-25.244 50.307-56.352z" fill="#4e5660"/></g></g><path d="m120.31 267.21-22.766 18.817c-12.271 10.142-30.9 4.801-35.931-10.303l-9.335-28.022c-1.647-4.944-4.948-9.17-9.347-11.964l-24.932-15.837c-13.438-8.536-14.114-27.904-1.305-37.356l23.766-17.538c4.193-3.094 7.192-7.54 8.49-12.587l7.358-28.605c3.966-15.418 22.177-22.046 35.125-12.784l24.023 17.183c4.239 3.032 9.393 4.51 14.595 4.185l29.479-1.842c15.889-.993 27.82 14.279 23.013 29.455l-8.919 28.158c-1.574 4.968-1.387 10.327.53 15.174l10.861 27.467c5.854 14.804-4.983 30.871-20.902 30.989l-29.536.219c-5.212.037-10.25 1.871-14.267 5.191z" fill="#8daee1"/><path d="m184.757 248.096c-94.059-20.964-125.632-75.15-130.257-117.255l-5.55 21.578c-1.298 5.047-4.297 9.493-8.49 12.587l-23.766 17.538c-12.81 9.453-12.133 28.821 1.305 37.357l24.932 15.837c4.399 2.794 7.7 7.02 9.347 11.964l9.335 28.023c5.032 15.104 23.66 20.445 35.931 10.303l22.766-18.818c4.017-3.32 9.056-5.154 14.267-5.193l29.536-.219c9.543-.07 17.255-5.875 20.644-13.702z" fill="#6a95d6"/><path d="m391.668 267.21 22.766 18.817c12.271 10.142 30.9 4.801 35.931-10.303l9.335-28.022c1.647-4.944 4.948-9.17 9.347-11.964l24.932-15.837c13.438-8.536 14.114-27.904 1.305-37.356l-23.766-17.538c-4.193-3.094-7.192-7.54-8.49-12.587l-7.358-28.605c-3.966-15.418-22.177-22.046-35.125-12.784l-24.023 17.183c-4.239 3.032-9.393 4.51-14.595 4.185l-29.479-1.842c-15.889-.993-27.82 14.279-23.013 29.455l8.919 28.158c1.574 4.968 1.387 10.327-.53 15.174l-10.861 27.467c-5.854 14.804 4.983 30.871 20.902 30.989l29.536.219c5.211.037 10.25 1.871 14.267 5.191z" fill="#8daee1"/><path d="m450.366 275.725 6.87-20.624c-52.208-22.043-74.053-80.566-68.275-123.385-2.28.584-4.65.832-7.033.683l-29.479-1.842c-15.889-.993-27.82 14.279-23.013 29.455l8.919 28.158c1.574 4.968 1.387 10.327-.53 15.174l-10.861 27.467c-5.854 14.804 4.983 30.871 20.902 30.989l29.536.219c5.211.039 10.25 1.873 14.267 5.193l22.766 18.818c12.27 10.14 30.899 4.798 35.931-10.305z" fill="#6a95d6"/><path d="m435.018 455.455-8.056 15.102c-3.305 6.196-12.187 6.196-15.492 0l-8.056-15.102c-.82-1.536-2.078-2.794-3.614-3.614l-15.102-8.056c-6.196-3.305-6.196-12.187 0-15.492l15.102-8.056c1.536-.82 2.795-2.078 3.614-3.614l8.056-15.102c3.305-6.196 12.187-6.196 15.492 0l8.056 15.102c.82 1.536 2.078 2.795 3.614 3.614l15.102 8.056c6.196 3.305 6.196 12.187 0 15.492l-15.102 8.056c-1.537.82-2.795 2.078-3.614 3.614z" fill="#a2ddfd"/><path d="m82.476 404.889-8.056 15.102c-3.305 6.196-12.187 6.196-15.492 0l-8.056-15.102c-.82-1.536-2.078-2.795-3.614-3.614l-15.102-8.056c-6.196-3.305-6.196-12.187 0-15.492l15.102-8.056c1.536-.82 2.794-2.078 3.614-3.614l8.056-15.102c3.305-6.196 12.187-6.196 15.492 0l8.056 15.102c.82 1.536 2.078 2.794 3.614 3.614l15.102 8.056c6.196 3.305 6.196 12.187 0 15.492l-15.102 8.056c-1.537.819-2.795 2.077-3.614 3.614z" fill="#a2ddfd"/><path d="m255.992 356.527c31.891-.016 57.821-28.662 57.804-63.855-.009-17.127-6.356-29.024-18.868-35.361-10.047-5.088-22.78-6.141-38.801-6.141h-.189c-21.632.011-57.836.029-57.815 41.561.018 35.185 25.962 63.798 57.843 63.796zm-42.869-63.804c-.011-20.581 9.595-26.536 42.823-26.553h.2c12.011 0 24.179.56 32.003 4.523 4.953 2.508 10.639 7.274 10.646 21.987.014 26.922-19.191 48.836-42.811 48.848h-.018c-23.611-.003-42.83-21.891-42.843-48.805zm286.615-116.213-23.767-17.538c-2.797-2.064-4.814-5.055-5.68-8.421l-1.974-7.674c-1.032-4.011-5.119-6.428-9.132-5.396-4.012 1.032-6.427 5.12-5.396 9.132l1.974 7.673c1.722 6.697 5.735 12.647 11.301 16.754l23.767 17.538c8.548 6.308 8.162 19.252-.873 24.991l-24.932 15.837c-5.837 3.707-10.255 9.363-12.441 15.925l-9.335 28.022c-3.359 10.082-15.788 13.709-24.038 6.893l-22.766-18.818c-5.331-4.405-12.074-6.859-18.99-6.912l-29.535-.219c-10.626-.078-17.919-10.781-13.983-20.731l10.861-27.467c2.543-6.432 2.793-13.605.704-20.195l-8.918-28.158c-3.223-10.172 4.75-20.369 15.396-19.706l29.479 1.842c6.913.438 13.802-1.548 19.426-5.57l24.023-17.184c5.617-4.018 13.256-3.725 18.578.711 3.183 2.652 7.912 2.223 10.563-.959 2.652-3.182 2.223-7.911-.959-10.563-8.122-6.77-18.965-8.652-28.622-5.54-12.045-11.424-25.086-21.486-38.935-30.1l11.565-6.17c11.478-6.123 11.476-22.605-.001-28.727-15.666-8.442-15.29-7.949-15.628-8.582l-8.056-15.102c-6.124-11.477-22.604-11.476-28.727 0l-8.055 15.099c-.34.636.067.125-15.63 8.585-2.411 1.287-4.403 3.127-5.865 5.313-79.047-19.325-165.36.607-227.644 59.659-16.531-5.324-34.126 4.385-38.45 21.191l-7.357 28.605c-.865 3.366-2.883 6.356-5.68 8.42l-23.765 17.542c-17.038 12.573-16.132 38.372 1.735 49.722l3.599 2.286c-8.532 45.949-3.396 94.671 17.047 139.393l-5.996 3.198c-11.477 6.122-11.476 22.605 0 28.727 15.652 8.436 15.286 7.943 15.629 8.583l8.056 15.101c4.546 8.527 15.311 11.106 23.198 6.006 9.618 10.499 20.184 20.19 31.53 28.856 3.292 2.515 8 1.884 10.513-1.407 2.515-3.292 1.885-7.998-1.407-10.513-11.474-8.764-22.104-18.635-31.674-29.378l4.621-8.663c.343-.641-.036-.142 15.629-8.584 11.481-6.122 11.476-22.606.001-28.727-15.661-8.44-15.29-7.948-15.629-8.582l-8.055-15.103c-6.124-11.478-22.607-11.475-28.727.001l-5.659 10.608c-16.966-38.966-21.617-80.888-15.358-120.8l7.613 4.836c2.934 1.863 5.154 4.706 6.254 8.003l9.335 28.023c6.691 20.084 31.507 27.201 47.825 13.713l22.766-18.817c2.679-2.214 6.069-3.448 9.545-3.474l29.535-.219c21.175-.157 35.605-21.563 27.821-41.247l-10.861-27.466c-1.278-3.233-1.404-6.838-.354-10.151l8.919-28.158c6.387-20.172-9.489-40.531-30.632-39.206l-29.479 1.842c-3.468.214-6.937-.777-9.764-2.8l-18.799-13.446c87.271-79.652 222.746-79.561 309.915.016l-18.776 13.43c-2.828 2.022-6.292 3.015-9.764 2.8l-29.479-1.842c-21.13-1.326-37.023 19.025-30.631 39.206l8.919 28.159c1.05 3.313.924 6.917-.354 10.15l-10.861 27.466c-7.805 19.738 6.697 41.09 27.821 41.247l29.534.219c3.477.026 6.867 1.26 9.546 3.474l22.766 18.817c16.35 13.514 41.146 6.336 47.825-13.713l9.335-28.022c1.1-3.298 3.32-6.141 6.254-8.005l7.577-4.813c9.582 61.148-7.327 121.362-43.259 167.876l-3.809-7.139c-2.834-5.315-8.338-8.618-14.362-8.618-.104.03-9.596-.321-14.364 8.617-8.43 15.642-7.94 15.285-8.583 15.628l-15.102 8.055c-11.479 6.123-11.475 22.607 0 28.727l5.288 2.821c-73.744 50.75-168.081 52.045-241.091 12.21-3.637-1.983-8.192-.644-10.176 2.992-1.983 3.636-.645 8.192 2.992 10.176 78.924 43.063 181.382 41.099 260.673-15.759l5.998 11.244c6.124 11.478 22.608 11.475 28.727 0 8.409-15.601 7.933-15.281 8.583-15.628l15.102-8.055c11.479-6.123 11.475-22.607 0-28.727l-9.722-5.186c41.989-53.052 59.182-121.334 46.825-187.949l3.635-2.309c17.846-11.336 18.801-37.131 1.738-49.722zm-464.051 207.834 15.101-8.055c2.858-1.524 5.175-3.84 6.702-6.702l8.056-15.103c.09-.167.361-.676 1.129-.676s1.039.51 1.129.676l8.056 15.105c1.526 2.858 3.844 5.175 6.7 6.698l15.103 8.056c.167.089.678.361.678 1.128-.001.767-.511 1.039-.679 1.129l-15.103 8.056c-2.857 1.525-5.174 3.841-6.699 6.699 0 .001-.001.002-.001.002-.891 1.672-5.627 10.551-7.144 13.395-1.043 1.956-1.114 2.384-2.039 2.384-.768 0-1.039-.509-1.129-.677l-8.057-15.104c-1.525-2.857-3.842-5.174-6.7-6.699l-15.102-8.056c-.168-.089-.678-.361-.678-1.129-.001-.765.509-1.037.677-1.127zm75.405-250.03c5.625 4.023 12.52 6.003 19.426 5.57l29.479-1.842c10.604-.656 18.629 9.5 15.395 19.706l-8.918 28.157c-2.089 6.591-1.839 13.764.704 20.197l10.861 27.467c3.908 9.879-3.28 20.652-13.983 20.73l-29.536.219c-6.915.052-13.658 2.506-18.989 6.912l-22.766 18.817c-8.169 6.752-20.648 3.282-24.038-6.892l-9.335-28.023c-2.187-6.561-6.604-12.217-12.441-15.924l-24.932-15.837c-8.97-5.698-9.483-18.638-.872-24.991l23.766-17.538c5.566-4.107 9.579-10.057 11.301-16.754l7.357-28.605c2.646-10.287 14.777-14.79 23.498-8.553zm259.879-72.008c-12.099-6.405-24.721-11.765-37.749-16.04l9.945-5.305c2.856-1.524 5.173-3.841 6.7-6.701l8.056-15.102c.09-.167.361-.677 1.129-.677s1.039.51 1.129.677l8.056 15.102c1.524 2.858 3.841 5.175 6.702 6.702l15.101 8.055c.91.484.917 1.77 0 2.258-14.081 7.743-16.115 8.014-19.069 11.031zm79.232 372.605c.91.484.917 1.77 0 2.258l-15.103 8.056c-2.857 1.525-5.174 3.841-6.699 6.699 0 .001-.001.001-.001.002l-8.056 15.102c-.09.167-.361.676-1.129.676s-1.039-.51-1.129-.677l-8.055-15.101c-1.525-2.86-3.843-5.178-6.702-6.703l-15.102-8.056c-.91-.484-.917-1.77 0-2.258l15.1-8.054c2.86-1.525 5.179-3.843 6.703-6.703l8.056-15.101c.09-.168.361-.678 1.129-.677.767 0 1.039.509 1.129.677l8.057 15.104c1.526 2.859 3.844 5.175 6.7 6.699z"/></g></svg>