<svg id="Capa_1" enable-background="new 0 0 512 512" height="512" viewBox="0 0 512 512" width="512" xmlns="http://www.w3.org/2000/svg"><g><ellipse cx="256" cy="256" fill="#f6ee86" rx="206.563" ry="202.081"/><path d="m394.678 405.77c-286.788 17.509-311.71-204.461-194.969-344.257-86.726 23.973-150.272 101.969-150.272 194.487 0 111.606 92.481 202.081 206.563 202.081 53.373 0 102.02-19.806 138.678-52.311z" fill="#eed076"/><g><g><path d="m174.332 274.368c.01 21.003-21.362 38.04-47.735 38.053-26.374.013-47.763-17.002-47.774-38.005-.01-21.003 21.361-38.041 47.736-38.054 26.373-.013 47.762 17.003 47.773 38.006z" fill="#e7889d"/><path d="m337.668 274.286c.011 21.003 21.4 38.018 47.774 38.005s47.746-17.05 47.736-38.053c-.011-21.004-21.4-38.019-47.774-38.006-26.374.014-47.746 17.051-47.736 38.054z" fill="#e7889d"/><path d="m302.802 257.111c-.014-28.93-20.973-31.637-46.827-31.624-25.853.013-46.81 2.742-46.795 31.672.015 28.929 20.984 52.37 46.837 52.357 25.854-.013 46.8-23.476 46.785-52.405z" fill="#4e5660"/></g></g><path d="m393.876 356.133c1.539-34.108 23.47-47.806 25.537-80.475.58-9.167 10.609-14.546 18.575-9.971 30.091 17.281 66.513 54.624 66.513 94.259 0 30.525-24.707 55.278-55.214 55.355-31.906.078-56.85-27.295-55.411-59.168z" fill="#a2ddfd"/><path d="m502.89 373.205c-69.641 9.838-92.968-33.393-92.502-65.799-6.99 14.615-15.57 27.849-16.512 48.727-1.439 31.873 23.505 59.246 55.411 59.166 25.937-.065 47.671-17.972 53.603-42.094z" fill="#7acdf9"/><path d="m118.124 356.133c-1.539-34.108-23.47-47.806-25.537-80.475-.58-9.167-10.61-14.546-18.575-9.971-30.09 17.28-66.512 54.623-66.512 94.258 0 30.525 24.707 55.278 55.214 55.355 31.905.079 56.849-27.294 55.41-59.167z" fill="#a2ddfd"/><path d="m114.588 378.753c-73.055 8.777-85.993-47.924-78.428-82.248-16.28 18.026-28.66 40.34-28.66 63.44 0 30.525 24.707 55.278 55.214 55.355 23.959.059 43.991-15.363 51.874-36.547z" fill="#7acdf9"/><path d="m357.556 202.663c-16.707.008-30.223 13.536-30.215 30.246.002 4.141 3.359 7.496 7.5 7.496h.004c4.142-.002 7.498-3.362 7.496-7.504-.004-8.417 6.804-15.234 15.223-15.238h.008c8.411 0 15.225 6.804 15.23 15.222.002 4.141 3.359 7.497 7.5 7.497h.003c4.142-.002 7.499-3.361 7.497-7.503-.008-16.698-13.522-30.215-30.229-30.215h-.017zm-202.643 220.99c-14.393-8.312-27.648-18.368-39.495-29.924 7.152-11.189 10.806-24.488 10.199-37.935-1.625-36.027-23.618-50.16-25.544-80.61-.932-14.72-17.016-23.34-29.795-16.002-4.312 2.476-8.664 5.286-12.979 8.385-6.756-112.287 84.837-206.148 198.701-206.148 51.324 0 100.055 19.04 137.216 53.613 3.032 2.821 7.778 2.65 10.6-.383 2.821-3.032 2.65-7.778-.383-10.6-39.946-37.162-92.306-57.63-147.433-57.63-126.317 0-226.633 107.457-212.771 232.466-23.723 21.242-43.229 50.697-43.229 81.06 0 34.572 28.125 62.768 62.695 62.854.904-.177 23.529 1.503 43.18-17.424 12.502 12.047 26.44 22.548 41.536 31.267 3.58 2.068 8.17.85 10.246-2.744 2.072-3.587.843-8.174-2.744-10.245zm-92.061-15.854h-.12c-26.319-.066-47.732-21.533-47.732-47.854 0-34.676 32.544-70.409 62.748-87.755 3.189-1.832 7.128.358 7.355 3.941 2.192 34.651 24.087 48.372 25.53 80.34 1.23 27.258-19.936 51.328-47.781 51.328zm193.12-189.812c-20.313.01-54.311.028-54.291 39.176.016 32.253 23.569 59.854 54.316 59.854h.025c29.947-.015 54.297-26.89 54.281-59.909-.02-39.147-33.968-39.133-54.331-39.121zm39.33 39.128c.013 24.748-17.612 44.89-39.288 44.901h-.017c-20.664-.001-39.303-18.969-39.316-44.861-.011-20.792 11.577-24.154 39.299-24.168h.167c27.598 0 39.145 3.379 39.155 24.128zm-118.18-16.631c4.142-.002 7.498-3.362 7.496-7.504-.008-16.664-13.568-30.214-30.23-30.214h-.016c-16.708.008-30.224 13.535-30.215 30.245.002 4.141 3.359 7.496 7.5 7.496h.004c4.142-.002 7.498-3.362 7.496-7.504-.004-8.417 6.804-15.233 15.223-15.237h.008c8.394 0 15.226 6.828 15.23 15.222.002 4.141 3.359 7.496 7.5 7.496zm291.649 38.402c5.788-52.201-8.063-103.803-39.747-146.309-2.476-3.321-7.174-4.007-10.496-1.531-3.321 2.476-4.006 7.174-1.531 10.496 26.483 35.529 40.515 79.291 37.703 126.026-4.315-3.099-8.668-5.909-12.979-8.385-12.789-7.344-28.864 1.295-29.794 16.002-1.925 30.417-23.919 44.589-25.544 80.61-.607 13.448 3.047 26.747 10.201 37.937-36.729 35.864-86.684 56.85-140.584 56.85-23.689 0-46.863-4.025-68.878-11.965-3.897-1.406-8.194.614-9.6 4.511-1.405 3.896.614 8.194 4.511 9.6 23.652 8.53 48.538 12.854 73.967 12.854 58.369 0 111.405-22.858 150.121-60.21 11.685 11.257 26.854 17.428 43.026 17.428h.159c34.57-.086 62.695-28.283 62.695-62.854-.001-30.364-19.507-59.819-43.23-81.06zm-19.503 128.913h-.12c-27.99 0-49.003-24.241-47.78-51.328 1.443-31.966 23.337-45.687 25.53-80.34.229-3.612 4.202-5.754 7.355-3.941 30.205 17.346 62.747 53.096 62.747 87.755 0 26.321-21.413 47.788-47.732 47.854z"/></g></svg>