<svg id="Capa_1" enable-background="new 0 0 512.009 512.009" height="512" viewBox="0 0 512.009 512.009" width="512" xmlns="http://www.w3.org/2000/svg"><g><g><path d="m7.638 411.047c2.603 31.389 32.694 54.34 53.619 66.224 6.701 3.806 14.891 3.806 21.592 0 20.925-11.884 51.016-34.836 53.619-66.224 1.858-22.399-15.119-42.251-37.595-42.383-10.445-.061-19.915 4.097-26.819 10.863-6.904-6.766-16.374-10.924-26.819-10.863-22.477.131-39.455 19.983-37.597 42.383z" fill="#e16e7e"/></g><g><path d="m57.6 48.451c2.514 30.314 31.575 52.48 51.783 63.958 6.472 3.676 14.381 3.676 20.853 0 20.209-11.478 49.269-33.643 51.784-63.958 1.794-21.633-14.602-40.805-36.309-40.932-10.088-.059-19.233 3.957-25.901 10.492-6.668-6.535-15.814-10.551-25.901-10.492-21.707.127-38.104 19.299-36.309 40.932z" fill="#e16e7e"/></g><g><ellipse cx="262.098" cy="257.646" fill="#f6ee86" rx="242.401" ry="237.141"/><path d="m424.836 433.401c-336.545 20.547-365.791-239.935-228.795-403.985-101.773 28.133-176.345 119.66-176.345 228.23 0 130.969 108.527 237.141 242.401 237.141 62.633 0 119.72-23.241 162.739-61.386z" fill="#eed076"/><g><g><path d="m166.26 279.201c.012 24.647-25.068 44.64-56.018 44.655-30.95.016-56.05-19.952-56.063-44.599-.012-24.647 25.068-44.641 56.018-44.656s56.051 19.953 56.063 44.6z" fill="#e7889d"/><path d="m357.935 279.105c.012 24.647 25.112 44.614 56.062 44.599s56.03-20.008 56.018-44.655-25.113-44.615-56.063-44.6c-30.949.015-56.029 20.008-56.017 44.656z" fill="#e7889d"/><path d="m309.15 260.697c-.015-29.085-21.086-31.807-47.077-31.794s-47.06 2.756-47.045 31.841c.015 29.084 21.097 52.651 47.088 52.637 25.99-.012 47.048-23.6 47.034-52.684z" fill="#4e5660"/></g><path d="m28.128 214.708c18.455 40.048 69.032 55.834 102.251 61.449 10.638 1.798 21.413-2.123 28.406-10.339 21.838-25.655 50.435-70.257 38.83-112.799-8.282-30.358-40.122-48.345-69.754-37.756-13.77 4.921-24.238 14.926-30.081 27.134-12.323-5.596-26.773-6.532-40.485-1.45-29.508 10.936-42.337 45.183-29.167 73.761z" fill="#e7889d"/><path d="m496.109 214.708c-18.455 40.048-69.032 55.834-102.251 61.449-10.638 1.798-21.413-2.123-28.406-10.339-21.838-25.655-50.435-70.257-38.83-112.799 8.281-30.358 40.122-48.345 69.754-37.756 13.77 4.921 24.238 14.926 30.081 27.134 12.323-5.596 26.773-6.532 40.485-1.45 29.508 10.936 42.337 45.183 29.167 73.761z" fill="#e7889d"/><g fill="#e16e7e"><path d="m365.211 114.062c-18.06 4.921-33.239 19.353-38.588 38.959-11.605 42.541 16.992 87.144 38.83 112.799 6.993 8.216 17.768 12.137 28.406 10.339 14.964-2.53 33.447-7.135 50.932-15.08-75.083-17.306-92.284-104.293-79.58-147.017z"/><path d="m158.784 265.819c5.416-6.363 11.248-13.895 16.78-22.269-89.695-2.18-111.273-65.116-106.787-105.45-3.844.514-7.691 1.443-11.483 2.848-29.506 10.935-42.335 45.181-29.166 73.76 18.455 40.048 69.032 55.834 102.251 61.449 10.638 1.799 21.412-2.122 28.405-10.338z"/></g></g></g><g><path d="m368.921 437.804c2.514 30.315 31.575 52.48 51.784 63.958 6.472 3.676 14.381 3.676 20.853 0 20.209-11.478 49.269-33.643 51.784-63.958 1.794-21.633-14.602-40.805-36.309-40.932-10.087-.059-19.233 3.957-25.901 10.492-6.668-6.535-15.814-10.551-25.901-10.492-21.708.127-38.104 19.299-36.31 40.932z" fill="#e16e7e"/></g><path d="m471.098 391.77c37.4-55.663 48.89-122.115 35.569-184.448 6.739-25.778-3.232-53.411-25.661-67.713-19.115-33.895-46.498-63.235-79.34-84.921-3.456-2.282-8.109-1.331-10.392 2.126-2.282 3.457-1.331 8.109 2.126 10.392 25.535 16.862 47.567 38.632 64.579 63.674-9.398-1.51-18.992-.788-28.118 2.168-16.025-25.587-49.749-36.614-78.818-21.455-40.286 21.006-54.93 84.342 8.698 159.088 8.542 10.035 22.042 15.126 35.367 12.873 37.309-6.306 78.614-21.833 100.279-52.672 6.649 55.76-7.333 111.814-40.937 158.568-8.442.464-16.501 3.256-23.32 8.145-17.035-12.216-42.006-11.313-57.87 6.022-15.158 16.564-14.903 39.159-4.724 58.777-56.011 27.851-121.676 32.536-181.185 13.025-3.94-1.294-8.174.854-9.464 4.79s.854 8.172 4.79 9.463c64.16 21.036 134.536 15.494 194.062-14.617 12.038 15.41 28.59 26.599 40.26 33.227 8.715 4.95 19.543 4.951 28.261 0 19.502-11.077 52.653-34.881 55.554-69.859 1.714-20.652-10.615-40.025-29.716-46.653zm18.2-180.2c-17.762 38.544-68.203 52.377-96.689 57.193-7.985 1.348-16.199-1.643-21.445-7.805-18.727-22-48.475-65.02-37.305-105.964 3.542-12.983 12.333-23.955 24.12-30.101 23.541-12.274 50.961-1.723 61.714 20.744 1.764 3.683 6.148 5.279 9.866 3.591 12.826-5.824 27.866-5.838 42.176 2.301 20.336 12.108 27.567 38.329 17.563 60.041zm-3.431 225.614c-2.418 29.16-34.383 50.314-48.014 58.056-4.146 2.355-9.298 2.355-13.444 0-13.631-7.742-45.595-28.895-48.014-58.056-.714-8.609 2.177-17.152 7.932-23.441 11.407-12.465 30.138-12.21 41.554-1.022 2.917 2.857 7.583 2.858 10.499-.001 11.405-11.177 30.159-11.43 41.554 1.023 5.756 6.289 8.647 14.832 7.933 23.441zm-278.34-176.436c.016 32.466 23.732 60.135 54.566 60.134h.026c30.085-.015 54.547-27.015 54.531-60.189-.008-16.212-6.033-27.481-17.908-33.495-9.516-4.819-21.574-5.769-36.673-5.794-20.407.01-54.562.027-54.542 39.344zm54.736-24.344c11.169 0 22.475.517 29.701 4.176 4.506 2.282 9.679 6.632 9.686 20.121.013 24.902-17.724 45.17-39.539 45.181h-.018c-22.781-.001-39.553-21.366-39.566-45.142-.011-20.938 11.65-24.323 39.549-24.337h.187zm-89.071-124.812c-29.066-15.155-62.792-4.132-78.817 21.456-9.146-2.962-18.762-3.681-28.181-2.157 65.119-96.144 192.017-129.229 296.366-80.884 3.76 1.741 8.217.106 9.958-3.652s.106-8.217-3.652-9.958c-58.61-27.154-124.636-30.282-183.915-11.464-12.277-25.186-43.414-32.272-65.142-16.692-7.472-5.357-16.452-8.275-25.945-8.222-26.314.154-45.874 23.306-43.739 49.051 1.37 16.525 9.606 32.242 24.469 46.813-11.941 13.267-22.514 27.914-31.454 43.786-22.231 14.234-32.314 41.704-25.592 67.564-11.221 52.417-4.678 106.807 18.544 154.906-22.394 4.736-37.868 26.142-35.928 49.527 2.993 36.096 37.241 60.683 57.389 72.126 8.943 5.079 20.056 5.081 29 0 9.3-5.282 22.119-13.681 33.3-24.973 9.21 6.25 18.867 11.908 28.914 16.921 3.706 1.849 8.211.344 10.06-3.362 1.85-3.707.344-8.211-3.362-10.06-87.017-43.418-138.169-135.077-126.651-231.488 21.757 31.017 63.29 46.465 100.315 52.723 12.968 2.193 26.588-2.559 35.367-12.873 9.986-11.732 23.842-30.272 33.139-51.975 22.411-52.317 5.188-91.663-24.443-107.113zm-108.118-63.761c-1.428-17.222 11.494-32.71 28.878-32.812 7.722-.086 15.068 2.919 20.608 8.348 2.916 2.858 7.583 2.858 10.499 0 13.457-13.188 35.926-10.576 45.582 6.583-32.065 12.338-61.268 31.074-85.688 55.096-12.135-11.942-18.819-24.436-19.879-37.215zm42.462 402.064c-9.59 9.275-20.405 16.319-28.391 20.855-4.373 2.484-9.809 2.484-14.184 0-14.15-8.037-47.334-30.003-49.849-60.323-1.423-17.163 10.914-33.053 28.358-34.193 15.776 27.829 37.386 53.083 64.066 73.661zm45.537-188.937c-5.247 6.163-13.462 9.155-21.445 7.805-28.486-4.816-78.928-18.649-96.689-57.193-11.343-24.617-.428-54.179 24.96-63.588 11.374-4.215 23.725-3.772 34.778 1.246 3.717 1.686 8.103.092 9.865-3.591 10.836-22.636 38.337-32.932 61.714-20.744 11.788 6.146 20.579 17.117 24.121 30.101 11.171 40.944-18.577 83.964-37.304 105.964z"/></g></svg>